#!OML:ASF \\sashay\E\Suitcase\Project 1\Capture day 1\Session 1\Male1.ASF
:FULLY-SPECIFIED
:DEGREES
211
root 0.431793 17.2462 -33.1067 3.76858 -3.42612 -3.92991
lowerback 3.67067 -0.747644 1.00155
upperback 1.46803 -0.923791 5.70743
thorax -0.468675 -0.4784 5.37895
lowerneck -17.1714 0.284159 -3.68
upperneck 17.2718 2.89283 -7.45527
head 8.31036 0.341888 -1.54907
rclavicle 1.94809e-014 3.65764e-014
rhumerus -41.208 -24.921 -56.1033
rradius 14.5577
rwrist 6.49638
rhand -17.8605 22.3325
rfingers 7.12502
rthumb 8.40499 -7.48031
lclavicle 1.94809e-014 3.65764e-014
lhumerus -38.8209 7.90992 84.0815
lradius 36.7631
lwrist -5.71532
lhand -1.33822 41.2078
lfingers 7.12502
lthumb 24.308 69.6866
rfemur -6.38432 3.25334 30.494
rtibia 27.3822
rfoot -22.1293 -10.5165
rtoes 18.8994
lfemur -22.2083 -1.5434 -14.2225
ltibia 52.0483
lfoot -17.7592 -2.40978
ltoes -3.2013
212
root 0.425338 17.2497 -33.0821 3.72484 -3.54871 -3.8395
lowerback 3.5203 -0.645544 0.854868
upperback 1.55212 -0.803273 5.76386
thorax -0.305125 -0.421171 5.51445
lowerneck -17.2253 0.29378 -3.69928
upperneck 17.1914 2.96761 -7.73995
head 8.30187 0.348487 -1.63207
rclavicle -7.15625e-015 -1.43125e-014
rhumerus -41.0321 -25.2035 -55.97
rradius 14.4628
rwrist 6.99107
rhand -18.4906 21.3565
rfingers 7.12502
rthumb 7.79686 -8.47971
lclavicle -7.15625e-015 -1.43125e-014
lhumerus -38.6663 8.01547 84.2609
lradius 36.6683
lwrist -5.73933
lhand -1.25386 41.1171
lfingers 7.12502
lthumb 24.3889 69.5849
rfemur -6.26346 3.22762 30.3953
rtibia 27.3204
rfoot -22.1467 -10.116
rtoes 18.7697
lfemur -22.3899 -1.51794 -14.2596
ltibia 52.6627
lfoot -17.1689 -2.6369
ltoes -4.3806
213
root 0.410201 17.2368 -33.0503 3.61728 -3.63283 -3.91395
lowerback 3.38804 -0.56512 0.780795
upperback 1.63395 -0.708096 5.84255
thorax -0.153066 -0.376609 5.63412
lowerneck -17.2834 0.323912 -3.78016
upperneck 17.2938 3.04434 -7.74137
head 8.34852 0.37348 -1.6113
rclavicle -2.14687e-014 3.18055e-015
rhumerus -41.196 -25.4099 -55.6987
rradius 14.4006
rwrist 7.34514
rhand -18.177 21.8388
rfingers 7.12502
rthumb 8.09948 -7.98599
lclavicle -2.14687e-014 3.18055e-015
lhumerus -38.6823 8.05464 84.3968
lradius 36.6776
lwrist -5.70119
lhand -1.54546 40.9295
lfingers 7.12502
lthumb 24.1093 69.4347
rfemur -5.90834 3.16206 30.5782
rtibia 27.2488
rfoot -22.1844 -9.66385
rtoes 17.9918
lfemur -22.5068 -1.38641 -14.0699
ltibia 53.1153
lfoot -16.5587 -2.96677
ltoes -5.61894
214
root 0.399117 17.2419 -33.0291 3.65773 -3.60038 -3.78574
lowerback 3.42213 -0.491888 0.561054
upperback 1.51667 -0.608633 5.88054
thorax -0.299394 -0.324739 5.79808
lowerneck -17.226 0.277128 -3.84572
upperneck 17.3326 2.99488 -7.73208
head 8.34963 0.346503 -1.60377
rclavicle 3.97569e-016 -1.74931e-014
rhumerus -41.2909 -25.5939 -55.4241
rradius 14.1146
rwrist 8.13859
rhand -18.8953 21.6858
rfingers 7.12502
rthumb 7.40624 -8.16459
lclavicle 3.97569e-016 -1.74931e-014
lhumerus -38.8505 7.88772 84.6104
lradius 36.7404
lwrist -5.78205
lhand -1.77678 40.7835
lfingers 7.12502
lthumb 23.8875 69.3179
rfemur -5.87747 3.39563 30.4983
rtibia 27.1418
rfoot -21.9979 -9.0977
rtoes 18.0222
lfemur -22.7916 -1.39135 -14.1193
ltibia 53.7471
lfoot -16.4267 -3.33104
ltoes -5.40211
215
root 0.387093 17.2433 -33.0107 3.67202 -3.47098 -3.81393
lowerback 3.40429 -0.5111 0.482697
upperback 1.49331 -0.635865 5.93135
thorax -0.30925 -0.338527 5.89783
lowerneck -17.3632 0.304528 -3.84557
upperneck 17.4533 3.06144 -7.76962
head 8.41779 0.365557 -1.6101
rclavicle 2.38542e-015 1.59028e-015
rhumerus -41.1432 -25.9383 -55.2767
rradius 13.7264
rwrist 8.73299
rhand -19.0577 21.9441
rfingers 7.12502
rthumb 7.2495 -7.91167
lclavicle 2.38542e-015 1.59028e-015
lhumerus -38.828 8.06585 84.5765
lradius 36.6335
lwrist -5.94298
lhand -1.3251 41.0714
lfingers 7.12502
lthumb 24.3206 69.5485
rfemur -5.79887 3.46415 30.6303
rtibia 27.1469
rfoot -21.9322 -9.24064
rtoes 18.0358
lfemur -23.0128 -1.60544 -13.9207
ltibia 54.1364
lfoot -15.926 -4.05243
ltoes -1.67821
216
root 0.372623 17.2375 -32.9879 3.60813 -3.65105 -3.99639
lowerback 3.43246 -0.391782 0.550825
upperback 1.45036 -0.470207 6.02938
thorax -0.385348 -0.253917 5.95757
lowerneck -17.0755 0.228559 -3.6856
upperneck 17.2601 2.95721 -8.15613
head 8.309 0.302126 -1.7762
rclavicle 1.11319e-014 3.02153e-014
rhumerus -41.3022 -26.5159 -54.7911
rradius 13.563
rwrist 9.50239
rhand -19.1616 21.6921
rfingers 7.12502
rthumb 7.14917 -8.16719
lclavicle 1.11319e-014 3.02153e-014
lhumerus -38.9448 8.08159 84.6718
lradius 36.5266
lwrist -6.11061
lhand -1.32139 40.4531
lfingers 7.12502
lthumb 24.3241 68.9297
rfemur -5.5579 3.67552 30.8991
rtibia 27.046
rfoot -21.8761 -9.82796
rtoes 18.5833
lfemur -23.1915 -1.47458 -13.6534
ltibia 54.6401
lfoot -15.86 -4.21579
ltoes -3.53866
217
root 0.366649 17.2288 -32.9587 3.53726 -3.60799 -3.96253
lowerback 3.3295 -0.425832 0.634635
upperback 1.55709 -0.523689 5.97551
thorax -0.213632 -0.283601 5.85229
lowerneck -17.5851 0.251264 -3.69941
upperneck 17.4494 3.04524 -8.14925
head 8.46688 0.322698 -1.76531
rclavicle 4.37326e-015 9.54166e-015
rhumerus -41.2322 -27.5813 -54.2651
rradius 13.1423
rwrist 10.8415
rhand -18.6673 22.7462
rfingers 7.12502
rthumb 7.62631 -7.09626
lclavicle 4.37326e-015 9.54166e-015
lhumerus -38.8937 7.99073 84.7278
lradius 36.7384
lwrist -5.8465
lhand -1.41789 41.5395
lfingers 7.12502
lthumb 24.2316 70.0285
rfemur -5.38789 3.38075 30.8816
rtibia 27.0142
rfoot -21.8906 -10.0185
rtoes 18.6967
lfemur -23.3959 -1.55245 -13.6451
ltibia 55.0231
lfoot -15.2017 -4.38094
ltoes -3.6815
218
root 0.358662 17.2295 -32.9314 3.43989 -3.81978 -3.95501
lowerback 3.33239 -0.347367 0.654081
upperback 1.56118 -0.418368 5.99315
thorax -0.221264 -0.230653 5.85627
lowerneck -17.4733 0.294243 -4.00543
upperneck 17.3697 3.14479 -8.02499
head 8.41748 0.36819 -1.65958
rclavicle -3.97569e-015 8.5875e-014
rhumerus -40.7771 -26.6092 -55.1918
rradius 13.3279
rwrist 9.70691
rhand -19.3452 21.0943
rfingers 7.12502
rthumb 6.97192 -8.7709
lclavicle -3.97569e-015 8.5875e-014
lhumerus -38.9722 8.00008 84.8139
lradius 36.6328
lwrist -5.90979
lhand -1.70734 41.1825
lfingers 7.12502
lthumb 23.9541 69.7082
rfemur -5.15698 3.46323 30.8611
rtibia 26.9385
rfoot -21.7255 -9.40067
rtoes 18.5981
lfemur -23.3084 -1.60733 -13.622
ltibia 55.4797
lfoot -14.9613 -4.43226
ltoes -3.31125
219
root 0.346993 17.233 -32.9093 3.48153 -3.74742 -4.05467
lowerback 3.29866 -0.386484 0.743111
upperback 1.49731 -0.465779 6.00825
thorax -0.264252 -0.252863 5.82284
lowerneck -17.5393 0.385969 -3.80842
upperneck 17.4667 3.27689 -8.23399
head 8.47273 0.415751 -1.74746
rclavicle 3.18055e-015 -4.92986e-014
rhumerus -40.7376 -27.3775 -54.7736
rradius 12.8819
rwrist 10.9246
rhand -19.0573 22.1551
rfingers 7.12502
rthumb 7.2498 -7.70069
lclavicle 3.18055e-015 -4.92986e-014
lhumerus -39.0473 8.28101 84.663
lradius 36.5004
lwrist -6.08884
lhand -1.38408 40.939
lfingers 7.12502
lthumb 24.264 69.4236
rfemur -5.1086 3.42929 31.0578
rtibia 26.9484
rfoot -21.8466 -9.6948
rtoes 18.3335
lfemur -23.6187 -1.75082 -13.3991
ltibia 55.8954
lfoot -14.7494 -4.85562
ltoes -3.64544
220
root 0.335653 17.2255 -32.8945 3.11415 -3.55868 -3.96824
lowerback 3.72764 -0.427027 0.606714
upperback 1.51692 -0.507084 5.99961
thorax -0.479214 -0.271866 5.89851
lowerneck -17.7396 0.381449 -3.79119
upperneck 17.735 3.32564 -8.32432
head 8.60438 0.413089 -1.77892
rclavicle -1.59028e-015 -7.95139e-015
rhumerus -40.641 -27.6318 -54.7829
rradius 12.8397
rwrist 11.2817
rhand -19.3718 21.7796
rfingers 7.12502
rthumb 6.94628 -8.08648
lclavicle -1.59028e-015 -7.95139e-015
lhumerus -39.2317 8.24766 84.7072
lradius 36.7116
lwrist -6.00101
lhand -1.66332 40.6348
lfingers 7.12502
lthumb 23.9963 69.155
rfemur -4.66642 3.47448 31.0755
rtibia 26.9319
rfoot -21.3984 -8.87995
rtoes 17.3412
lfemur -23.532 -1.94335 -13.448
ltibia 56.2644
lfoot -14.3581 -4.95895
ltoes -5.1094
221
root 0.323212 17.2294 -32.8599 3.57424 -3.63024 -3.75203
lowerback 3.01167 -0.402244 0.402216
upperback 1.42905 -0.504614 5.91072
thorax -0.167985 -0.273608 5.91323
lowerneck -17.8909 0.426222 -3.75171
upperneck 17.8845 3.41867 -8.39938
head 8.68793 0.440884 -1.8016
rclavicle -5.96354e-016 4.6118e-014
rhumerus -40.273 -27.5879 -55.2068
rradius 12.7372
rwrist 10.9973
rhand -19.1198 21.5648
rfingers 7.12502
rthumb 7.18947 -8.29303
lclavicle -5.96354e-016 4.6118e-014
lhumerus -39.1985 8.4837 84.5971
lradius 36.5257
lwrist -6.31514
lhand -1.4989 40.9162
lfingers 7.12502
lthumb 24.1539 69.4155
rfemur -5.13061 3.98627 30.7841
rtibia 26.8379
rfoot -21.5007 -8.55259
rtoes 20.5829
lfemur -24.1025 -1.94226 -13.6103
ltibia 56.6436
lfoot -13.975 -4.98775
ltoes -4.98294
222
root 0.308207 17.2185 -32.8491 3.64654 -3.49953 -3.8966
lowerback 3.04523 -0.440041 0.462411
upperback 1.30487 -0.545077 5.98474
thorax -0.31057 -0.290576 5.95966
lowerneck -17.7221 0.479105 -3.75727
upperneck 17.9415 3.518 -8.54558
head 8.68425 0.473044 -1.83813
rclavicle 4.96962e-015 -6.20208e-014
rhumerus -40.2108 -28.0844 -54.9501
rradius 12.5052
rwrist 11.9303
rhand -19.3303 21.6345
rfingers 7.12502
rthumb 6.98628 -8.23018
lclavicle 4.96962e-015 -6.20208e-014
lhumerus -39.2751 8.47673 84.6363
lradius 36.4479
lwrist -6.28781
lhand -1.44346 41.0814
lfingers 7.12502
lthumb 24.2071 69.5736
rfemur -5.03697 3.73019 31.0996
rtibia 26.848
rfoot -21.8955 -9.89172
rtoes 20.4665
lfemur -24.5303 -2.0241 -13.3322
ltibia 56.9942
lfoot -13.3263 -5.15547
ltoes -3.9677
